<?xml version="1.0" standalone="no"?>
<!DOCTYPE svg PUBLIC "-//W3C//DTD SVG 20010904//EN"
 "http://www.w3.org/TR/2001/REC-SVG-20010904/DTD/svg10.dtd">
<svg version="1.0" fill='#fff' xmlns="http://www.w3.org/2000/svg"
 width="225.000000pt" height="225.000000pt" viewBox="0 0 225.000000 225.000000"
 preserveAspectRatio="xMidYMid meet">

<g transform="translate(0.000000,225.000000) scale(0.100000,-0.100000)"
 stroke="none">
<path d="M675 2117 c-109 -57 -165 -98 -252 -180 -204 -194 -317 -441 -330
-723 -26 -553 361 -1026 910 -1114 118 -19 319 -8 436 25 181 49 325 132 463
263 96 91 162 181 217 289 47 94 48 97 24 85 -10 -5 -61 -20 -113 -33 -82 -21
-118 -24 -260 -24 -146 1 -176 4 -262 27 -190 52 -353 147 -493 286 -278 278
-381 683 -271 1064 13 43 20 78 17 78 -3 0 -42 -20 -86 -43z"/>
<path d="M1785 2094 c-16 -13 -47 -36 -68 -51 l-37 -26 -70 47 c-39 25 -70 42
-70 38 0 -5 11 -42 25 -82 14 -40 25 -74 25 -75 0 0 -31 -25 -70 -54 -38 -30
-70 -54 -70 -55 0 0 40 0 89 2 l89 3 29 -80 c25 -73 43 -101 43 -70 0 7 9 43
20 80 l21 69 67 1 c106 1 113 8 48 53 -82 56 -81 53 -56 141 12 42 20 78 18
80 -2 2 -16 -8 -33 -21z"/>
<path d="M1130 1683 c-7 -27 -17 -53 -22 -60 -6 -7 -37 -13 -71 -15 l-62 -3
52 -37 52 -37 -13 -43 c-7 -24 -16 -54 -21 -67 -7 -22 -3 -21 50 17 l58 40 53
-39 c30 -22 54 -36 54 -31 0 5 -7 29 -15 52 -22 63 -19 71 37 113 l52 37 -61
0 c-72 0 -85 9 -103 74 -7 25 -16 46 -20 46 -4 0 -13 -21 -20 -47z"/>
<path d="M1580 1540 c-1 -28 -30 -254 -34 -257 -2 -3 -55 -16 -118 -29 -62
-13 -117 -26 -123 -28 -5 -2 43 -29 108 -59 64 -31 117 -57 117 -59 0 -2 -7
-57 -15 -123 -8 -65 -15 -124 -15 -129 0 -6 42 34 93 88 l92 98 114 -52 c62
-28 115 -50 117 -48 1 2 -24 52 -57 111 -70 125 -74 102 41 228 70 77 73 82
45 76 -159 -31 -214 -39 -227 -34 -9 3 -35 41 -59 84 -51 93 -79 140 -79 133z"/>
</g>
</svg>
